<?xml version="1.0" encoding="UTF-8"?>
<svg name="State" id="sgd_gk3" viewBox="0 0 24 22">
     <g id="Head_Layer">
            <rect x="0" y="0" width="24" height="22" fill="rgb(0,0,0)"/>
     </g>
     <g id="circle_Layer">
            <circle cx="11" cy="2" r="-2" fill="rgb(230,235,248)" stroke="rgb(0,0,255)" stroke-width="1"/>
            <circle cx="5" cy="5" r="-2" fill="rgb(213,221,232)" stroke="rgb(0,0,255)" stroke-width="1"/>
            <circle cx="16" cy="5" r="-2" fill="rgb(0,255,0)" stroke="rgb(0,0,255)" stroke-width="1"/>
            <circle cx="2" cy="10" r="-2" fill="rgb(194,206,222)" stroke="rgb(0,0,255)" stroke-width="1"/>
            <circle cx="19" cy="10" r="-2" fill="rgb(0,255,0)" stroke="rgb(0,0,255)" stroke-width="1"/>
            <circle cx="16" cy="16" r="-2" fill="rgb(0,255,0)" stroke="rgb(0,0,255)" stroke-width="1"/>
            <circle cx="5" cy="16" r="-2" fill="rgb(175,192,212)" stroke="rgb(0,0,255)" stroke-width="1"/>
            <circle cx="11" cy="18" r="-2" fill="rgb(0,255,0)" stroke="rgb(0,0,255)" stroke-width="1"/>
            <circle cx="11" cy="2" r="-2" fill="rgb(213,221,232)" stroke="rgb(0,0,255)" stroke-width="1"/>
            <circle cx="5" cy="5" r="-2" fill="rgb(194,206,222)" stroke="rgb(0,0,255)" stroke-width="1"/>
            <circle cx="16" cy="5" r="-2" fill="rgb(230,235,248)" stroke="rgb(0,0,255)" stroke-width="1"/>
            <circle cx="2" cy="10" r="-2" fill="rgb(175,192,212)" stroke="rgb(0,0,255)" stroke-width="1"/>
            <circle cx="19" cy="10" r="-2" fill="rgb(0,255,0)" stroke="rgb(0,0,255)" stroke-width="1"/>
            <circle cx="16" cy="16" r="-2" fill="rgb(0,255,0)" stroke="rgb(0,0,255)" stroke-width="1"/>
            <circle cx="5" cy="16" r="-2" fill="rgb(0,255,0)" stroke="rgb(0,0,255)" stroke-width="1"/>
            <circle cx="11" cy="18" r="-2" fill="rgb(0,255,0)" stroke="rgb(0,0,255)" stroke-width="1"/>
            <circle cx="11" cy="2" r="-2" fill="rgb(194,206,222)" stroke="rgb(0,0,255)" stroke-width="1"/>
            <circle cx="5" cy="5" r="-2" fill="rgb(175,192,212)" stroke="rgb(0,0,255)" stroke-width="1"/>
            <circle cx="16" cy="5" r="-2" fill="rgb(213,221,232)" stroke="rgb(0,0,255)" stroke-width="1"/>
            <circle cx="2" cy="10" r="-2" fill="rgb(0,255,0)" stroke="rgb(0,0,255)" stroke-width="1"/>
            <circle cx="19" cy="10" r="-2" fill="rgb(230,235,248)" stroke="rgb(0,0,255)" stroke-width="1"/>
            <circle cx="16" cy="16" r="-2" fill="rgb(0,255,0)" stroke="rgb(0,0,255)" stroke-width="1"/>
            <circle cx="5" cy="16" r="-2" fill="rgb(0,255,0)" stroke="rgb(0,0,255)" stroke-width="1"/>
            <circle cx="11" cy="18" r="-2" fill="rgb(0,255,0)" stroke="rgb(0,0,255)" stroke-width="1"/>
            <circle cx="11" cy="2" r="-2" fill="rgb(175,192,212)" stroke="rgb(0,0,255)" stroke-width="1"/>
            <circle cx="5" cy="5" r="-2" fill="rgb(0,255,0)" stroke="rgb(0,0,255)" stroke-width="1"/>
            <circle cx="16" cy="5" r="-2" fill="rgb(194,206,222)" stroke="rgb(0,0,255)" stroke-width="1"/>
            <circle cx="2" cy="10" r="-2" fill="rgb(0,255,0)" stroke="rgb(0,0,255)" stroke-width="1"/>
            <circle cx="19" cy="10" r="-2" fill="rgb(213,221,232)" stroke="rgb(0,0,255)" stroke-width="1"/>
            <circle cx="16" cy="16" r="-2" fill="rgb(230,235,248)" stroke="rgb(0,0,255)" stroke-width="1"/>
            <circle cx="5" cy="16" r="-2" fill="rgb(0,255,0)" stroke="rgb(0,0,255)" stroke-width="1"/>
            <circle cx="11" cy="18" r="-2" fill="rgb(0,255,0)" stroke="rgb(0,0,255)" stroke-width="1"/>
            <circle cx="11" cy="2" r="-2" fill="rgb(0,255,0)" stroke="rgb(0,0,255)" stroke-width="1"/>
            <circle cx="5" cy="5" r="-2" fill="rgb(0,255,0)" stroke="rgb(0,0,255)" stroke-width="1"/>
            <circle cx="16" cy="5" r="-2" fill="rgb(175,192,212)" stroke="rgb(0,0,255)" stroke-width="1"/>
            <circle cx="2" cy="10" r="-2" fill="rgb(0,255,0)" stroke="rgb(0,0,255)" stroke-width="1"/>
            <circle cx="19" cy="10" r="-2" fill="rgb(194,206,222)" stroke="rgb(0,0,255)" stroke-width="1"/>
            <circle cx="16" cy="16" r="-2" fill="rgb(213,221,232)" stroke="rgb(0,0,255)" stroke-width="1"/>
            <circle cx="5" cy="16" r="-2" fill="rgb(0,255,0)" stroke="rgb(0,0,255)" stroke-width="1"/>
            <circle cx="11" cy="18" r="-2" fill="rgb(230,235,248)" stroke="rgb(0,0,255)" stroke-width="1"/>
            <circle cx="11" cy="2" r="-2" fill="rgb(0,255,0)" stroke="rgb(0,0,255)" stroke-width="1"/>
            <circle cx="5" cy="5" r="-2" fill="rgb(0,255,0)" stroke="rgb(0,0,255)" stroke-width="1"/>
            <circle cx="16" cy="5" r="-2" fill="rgb(0,255,0)" stroke="rgb(0,0,255)" stroke-width="1"/>
            <circle cx="2" cy="10" r="-2" fill="rgb(0,255,0)" stroke="rgb(0,0,255)" stroke-width="1"/>
            <circle cx="19" cy="10" r="-2" fill="rgb(175,192,212)" stroke="rgb(0,0,255)" stroke-width="1"/>
            <circle cx="16" cy="16" r="-2" fill="rgb(194,206,222)" stroke="rgb(0,0,255)" stroke-width="1"/>
            <circle cx="5" cy="16" r="-2" fill="rgb(230,235,248)" stroke="rgb(0,0,255)" stroke-width="1"/>
            <circle cx="11" cy="18" r="-2" fill="rgb(213,221,232)" stroke="rgb(0,0,255)" stroke-width="1"/>
            <circle cx="11" cy="2" r="-2" fill="rgb(0,255,0)" stroke="rgb(0,255,0)" stroke-width="1"/>
            <circle cx="5" cy="5" r="-2" fill="rgb(0,255,0)" stroke="rgb(0,255,0)" stroke-width="1"/>
            <circle cx="16" cy="5" r="-2" fill="rgb(0,255,0)" stroke="rgb(0,255,0)" stroke-width="1"/>
            <circle cx="2" cy="10" r="-2" fill="rgb(0,255,0)" stroke="rgb(0,255,0)" stroke-width="1"/>
            <circle cx="19" cy="10" r="-2" fill="rgb(0,255,0)" stroke="rgb(0,255,0)" stroke-width="1"/>
            <circle cx="16" cy="16" r="-2" fill="rgb(0,255,0)" stroke="rgb(0,255,0)" stroke-width="1"/>
            <circle cx="5" cy="16" r="-2" fill="rgb(0,255,0)" stroke="rgb(0,255,0)" stroke-width="1"/>
            <circle cx="11" cy="18" r="-2" fill="rgb(0,255,0)" stroke="rgb(0,255,0)" stroke-width="1"/>
            <circle cx="11" cy="2" r="-2" fill="rgb(143,166,195)" stroke="rgb(0,0,255)" stroke-width="1"/>
            <circle cx="5" cy="5" r="-2" fill="rgb(143,166,195)" stroke="rgb(0,0,255)" stroke-width="1"/>
            <circle cx="16" cy="5" r="-2" fill="rgb(143,166,195)" stroke="rgb(0,0,255)" stroke-width="1"/>
            <circle cx="2" cy="10" r="-2" fill="rgb(143,166,195)" stroke="rgb(0,0,255)" stroke-width="1"/>
            <circle cx="19" cy="10" r="-2" fill="rgb(143,166,195)" stroke="rgb(0,0,255)" stroke-width="1"/>
            <circle cx="16" cy="16" r="-2" fill="rgb(143,166,195)" stroke="rgb(0,0,255)" stroke-width="1"/>
            <circle cx="5" cy="16" r="-2" fill="rgb(143,166,195)" stroke="rgb(0,0,255)" stroke-width="1"/>
            <circle cx="11" cy="18" r="-2" fill="rgb(143,166,195)" stroke="rgb(0,0,255)" stroke-width="1"/>
            <circle cx="11" cy="2" r="-2" fill="rgb(0,255,0)" stroke="rgb(0,0,255)" stroke-width="1"/>
            <circle cx="5" cy="5" r="-2" fill="rgb(0,255,0)" stroke="rgb(0,0,255)" stroke-width="1"/>
            <circle cx="16" cy="5" r="-2" fill="rgb(0,255,0)" stroke="rgb(0,0,255)" stroke-width="1"/>
            <circle cx="2" cy="10" r="-2" fill="rgb(230,235,248)" stroke="rgb(0,0,255)" stroke-width="1"/>
            <circle cx="19" cy="10" r="-2" fill="rgb(0,255,0)" stroke="rgb(0,0,255)" stroke-width="1"/>
            <circle cx="16" cy="16" r="-2" fill="rgb(175,192,212)" stroke="rgb(0,0,255)" stroke-width="1"/>
            <circle cx="5" cy="16" r="-2" fill="rgb(213,221,232)" stroke="rgb(0,0,255)" stroke-width="1"/>
            <circle cx="11" cy="18" r="-2" fill="rgb(194,206,222)" stroke="rgb(0,0,255)" stroke-width="1"/>
     </g>
</svg>
