<?xml version="1.0" encoding="UTF-8"?>
<svg name="State" id="sgd_gk2" viewBox="0 0 10 50">
     <g id="Head_Layer">
            <rect x="0" y="0" width="10" height="50" fill="rgb(0,0,0)"/>
     </g>
     <g id="rect_Layer">
            <rect x="3" y="3" width="4" height="10" fill="rgb(202,202,202)" stroke="rgb(202,202,202)" lineStyle="0" stroke-width="1"/>
            <rect x="3" y="14" width="4" height="10" fill="rgb(202,202,202)" stroke="rgb(202,202,202)" lineStyle="0" stroke-width="1"/>
            <rect x="3" y="25" width="4" height="10" fill="rgb(202,202,202)" stroke="rgb(202,202,202)" lineStyle="0" stroke-width="1"/>
            <rect x="3" y="36" width="4" height="10" fill="rgb(202,202,202)" stroke="rgb(202,202,202)" lineStyle="0" stroke-width="1"/>
            <rect x="3" y="14" width="4" height="11" fill="rgb(202,202,202)" stroke="rgb(202,202,202)" lineStyle="0" stroke-width="1"/>
            <rect x="3" y="26" width="4" height="9" fill="rgb(202,202,202)" stroke="rgb(202,202,202)" lineStyle="0" stroke-width="1"/>
            <rect x="3" y="14" width="4" height="10" fill="rgb(202,202,202)" stroke="rgb(202,202,202)" lineStyle="0" stroke-width="1"/>
            <rect x="3" y="14" width="4" height="10" fill="rgb(202,202,202)" stroke="rgb(202,202,202)" lineStyle="0" stroke-width="1"/>
            <rect x="3" y="3" width="4" height="5" fill="rgb(255,0,0)" stroke="rgb(255,0,0)" lineStyle="0" stroke-width="1"/>
            <rect x="3" y="9" width="4" height="10" fill="rgb(255,255,0)" stroke="rgb(255,255,0)" lineStyle="0" stroke-width="1"/>
            <rect x="3" y="20" width="4" height="10" fill="rgb(85,85,255)" stroke="rgb(85,85,255)" lineStyle="0" stroke-width="1"/>
            <rect x="3" y="31" width="4" height="10" fill="rgb(0,227,0)" stroke="rgb(0,227,0)" lineStyle="0" stroke-width="1"/>
            <rect x="3" y="42" width="4" height="4" fill="rgb(255,0,0)" stroke="rgb(255,0,0)" lineStyle="0" stroke-width="1"/>
            <rect x="3" y="3" width="4" height="10" fill="rgb(255,255,0)" stroke="rgb(255,255,0)" lineStyle="0" stroke-width="1"/>
            <rect x="3" y="14" width="4" height="10" fill="rgb(85,85,255)" stroke="rgb(85,85,255)" lineStyle="0" stroke-width="1"/>
            <rect x="3" y="25" width="4" height="10" fill="rgb(0,227,0)" stroke="rgb(0,227,0)" lineStyle="0" stroke-width="1"/>
            <rect x="3" y="36" width="4" height="10" fill="rgb(255,0,0)" stroke="rgb(255,0,0)" lineStyle="0" stroke-width="1"/>
            <rect x="3" y="3" width="4" height="5" fill="rgb(255,255,0)" stroke="rgb(255,255,0)" lineStyle="0" stroke-width="1"/>
            <rect x="3" y="9" width="4" height="10" fill="rgb(85,85,255)" stroke="rgb(85,85,255)" lineStyle="0" stroke-width="1"/>
            <rect x="3" y="20" width="4" height="10" fill="rgb(0,227,0)" stroke="rgb(0,227,0)" lineStyle="0" stroke-width="1"/>
            <rect x="3" y="31" width="4" height="10" fill="rgb(255,0,0)" stroke="rgb(255,0,0)" lineStyle="0" stroke-width="1"/>
            <rect x="3" y="42" width="4" height="4" fill="rgb(255,255,0)" stroke="rgb(255,255,0)" lineStyle="0" stroke-width="1"/>
            <rect x="3" y="3" width="4" height="10" fill="rgb(85,85,255)" stroke="rgb(85,85,255)" lineStyle="0" stroke-width="1"/>
            <rect x="3" y="14" width="4" height="10" fill="rgb(0,227,0)" stroke="rgb(0,227,0)" lineStyle="0" stroke-width="1"/>
            <rect x="3" y="25" width="4" height="10" fill="rgb(255,0,0)" stroke="rgb(255,0,0)" lineStyle="0" stroke-width="1"/>
            <rect x="3" y="36" width="4" height="10" fill="rgb(255,255,0)" stroke="rgb(255,255,0)" lineStyle="0" stroke-width="1"/>
            <rect x="3" y="3" width="4" height="5" fill="rgb(85,85,255)" stroke="rgb(85,85,255)" lineStyle="0" stroke-width="1"/>
            <rect x="3" y="9" width="4" height="10" fill="rgb(0,227,0)" stroke="rgb(0,227,0)" lineStyle="0" stroke-width="1"/>
            <rect x="3" y="20" width="4" height="10" fill="rgb(255,0,0)" stroke="rgb(255,0,0)" lineStyle="0" stroke-width="1"/>
            <rect x="3" y="31" width="4" height="10" fill="rgb(255,255,0)" stroke="rgb(255,255,0)" lineStyle="0" stroke-width="1"/>
            <rect x="3" y="42" width="4" height="4" fill="rgb(85,85,255)" stroke="rgb(85,85,255)" lineStyle="0" stroke-width="1"/>
            <rect x="3" y="3" width="4" height="10" fill="rgb(0,227,0)" stroke="rgb(0,227,0)" lineStyle="0" stroke-width="1"/>
            <rect x="3" y="14" width="4" height="10" fill="rgb(255,0,0)" stroke="rgb(255,0,0)" lineStyle="0" stroke-width="1"/>
            <rect x="3" y="25" width="4" height="10" fill="rgb(255,255,0)" stroke="rgb(255,255,0)" lineStyle="0" stroke-width="1"/>
            <rect x="3" y="36" width="4" height="10" fill="rgb(85,85,255)" stroke="rgb(85,85,255)" lineStyle="0" stroke-width="1"/>
            <rect x="3" y="3" width="4" height="5" fill="rgb(0,227,0)" stroke="rgb(0,227,0)" lineStyle="0" stroke-width="1"/>
            <rect x="3" y="9" width="4" height="10" fill="rgb(255,0,0)" stroke="rgb(255,0,0)" lineStyle="0" stroke-width="1"/>
            <rect x="3" y="20" width="4" height="10" fill="rgb(255,255,0)" stroke="rgb(255,255,0)" lineStyle="0" stroke-width="1"/>
            <rect x="3" y="31" width="4" height="10" fill="rgb(85,85,255)" stroke="rgb(85,85,255)" lineStyle="0" stroke-width="1"/>
            <rect x="3" y="42" width="4" height="4" fill="rgb(0,227,0)" stroke="rgb(0,227,0)" lineStyle="0" stroke-width="1"/>
     </g>
</svg>
