<?xml version="1.0" encoding="UTF-8"?>
<svg name="Capacitor_P" id="gd_dr1" viewBox="0 0 24 52">
     <g id="Head_Layer">
            <rect x="0" y="0" width="24" height="52" fill="rgb(0,0,0)"/>
     </g>
     <g id="circlearc_Layer">
            <path d="M 12 29 A 8 8 0 1 1 4 21" fill="none" stroke="rgb(255,0,0)" stroke-width="2"/>
            <path d="M 12 13 A 8 8 0 1 1 12 29" fill="none" stroke="rgb(255,0,0)" stroke-width="2"/>
     </g>
     <g id="pin_Layer">
            <circle cx="12" cy="4" r="2" fill="none" stroke="rgb(255,0,0)" stroke-width="1"/>
     </g>
     <g id="line_Layer">
            <line x1="12" y1="38" x2="12" y2="22" fill="rgb(255,0,0)" stroke="rgb(255,0,0)" stroke-width="2"/>
            <line x1="7" y1="49" x2="7" y2="49" fill="rgb(255,0,0)" stroke="rgb(93,92,88)" stroke-width="1"/>
            <line x1="16" y1="49" x2="16" y2="49" fill="rgb(255,0,0)" stroke="rgb(93,92,88)" stroke-width="1"/>
            <line x1="3" y1="40" x2="20" y2="40" fill="rgb(255,0,0)" stroke="rgb(255,0,0)" stroke-width="2"/>
            <line x1="3" y1="46" x2="20" y2="46" fill="none" stroke="rgb(255,0,0)" stroke-width="2"/>
            <line x1="16" y1="38" x2="16" y2="38" fill="rgb(255,0,0)" stroke="rgb(93,92,88)" stroke-width="1"/>
            <line x1="7" y1="38" x2="7" y2="38" fill="rgb(255,0,0)" stroke="rgb(93,92,88)" stroke-width="1"/>
            <line x1="12" y1="13" x2="12" y2="6" fill="rgb(255,0,0)" stroke="rgb(255,0,0)" stroke-width="2"/>
            <line x1="4" y1="21" x2="12" y2="21" fill="rgb(255,0,0)" stroke="rgb(255,0,0)" stroke-width="2"/>
     </g>
</svg>
