<?xml version="1.0" encoding="UTF-8"?>
<svg name="Status" id="arc_red" viewBox="0 0 50 50">
     <g id="Head_Layer">
            <rect x="0" y="0" width="50" height="50" fill="rgb(0,0,0)"/>
     </g>
     <g id="rect_Layer">
            <rect x="21" y="20" width="10" height="10" fill="rgb(182,182,182)" stroke="rgb(182,182,182)" lineStyle="0" stroke-width="1"/>
            <rect x="22" y="16" width="13" height="13" fill="rgb(182,182,182)" stroke="rgb(182,182,182)" lineStyle="0" stroke-width="1"/>
            <rect x="22" y="17" width="15" height="15" fill="rgb(182,182,182)" stroke="rgb(182,182,182)" lineStyle="0" stroke-width="1"/>
            <rect x="26" y="16" width="18" height="18" fill="rgb(182,182,182)" stroke="rgb(182,182,182)" lineStyle="0" stroke-width="1"/>
            <rect x="23" y="13" width="24" height="24" fill="rgb(182,182,182)" stroke="rgb(182,182,182)" lineStyle="0" stroke-width="1"/>
            <rect x="15" y="19" width="10" height="10" fill="rgb(182,182,182)" stroke="rgb(182,182,182)" lineStyle="0" stroke-width="1"/>
            <rect x="16" y="19" width="13" height="13" fill="rgb(182,182,182)" stroke="rgb(182,182,182)" lineStyle="0" stroke-width="1"/>
            <rect x="10" y="15" width="15" height="15" fill="rgb(182,182,182)" stroke="rgb(182,182,182)" lineStyle="0" stroke-width="1"/>
            <rect x="7" y="16" width="18" height="18" fill="rgb(182,182,182)" stroke="rgb(182,182,182)" lineStyle="0" stroke-width="1"/>
            <rect x="17" y="17" width="0" height="0" fill="none" stroke="rgb(0,0,255)" lineStyle="0" stroke-width="1"/>
            <rect x="2" y="13" width="24" height="24" fill="rgb(182,182,182)" stroke="rgb(182,182,182)" lineStyle="0" stroke-width="1"/>
     </g>
     <g id="triangle_Layer">
            <polygon points="18,21 8,28 28,28" fill="rgb(182,182,182)" stroke="rgb(182,182,182)" stroke-width="1"/>
            <polygon points="16,16 29,29 3,29" fill="rgb(182,182,182)" stroke="rgb(182,182,182)" stroke-width="1"/>
            <polygon points="14.5,16 30,32 -1,32" fill="rgb(182,182,182)" stroke="rgb(182,182,182)" stroke-width="1"/>
            <polygon points="15,14 35,35 -5,35" fill="rgb(182,182,182)" stroke="rgb(182,182,182)" stroke-width="1"/>
            <polygon points="12,14 35,36 -11,36" fill="rgb(182,182,182)" stroke="rgb(182,182,182)" stroke-width="1"/>
            <polygon points="27,20 37,27 17,27" fill="rgb(182,182,182)" stroke="rgb(182,182,182)" stroke-width="1"/>
            <polygon points="36,18 49,31 23,31" fill="rgb(182,182,182)" stroke="rgb(182,182,182)" stroke-width="1"/>
            <polygon points="33.5,14 49,30 18,30" fill="rgb(182,182,182)" stroke="rgb(182,182,182)" stroke-width="1"/>
            <polygon points="36,14 56,35 16,35" fill="rgb(182,182,182)" stroke="rgb(182,182,182)" stroke-width="1"/>
            <polygon points="37,14 60,36 14,36" fill="rgb(182,182,182)" stroke="rgb(182,182,182)" stroke-width="1"/>
     </g>
</svg>
