<?xml version="1.0" encoding="UTF-8"?>
<svg name="RectifierInverter" id="sgd_hlq_hz" viewBox="0 0 62 38">
     <g id="Head_Layer">
            <rect x="0" y="0" width="62" height="38" fill="rgb(0,0,0)"/>
     </g>
     <g id="rect_Layer">
            <rect x="42" y="7" width="13" height="10" fill="none" stroke="rgb(255,170,0)" lineStyle="0" stroke-width="2"/>
            <rect x="42" y="21" width="13" height="10" fill="none" stroke="rgb(255,170,0)" lineStyle="0" stroke-width="2"/>
     </g>
     <g id="circle_Layer">
            <circle cx="28" cy="26" r="10" fill="none" stroke="rgb(255,170,0)" stroke-width="1"/>
            <circle cx="28" cy="12" r="10" fill="none" stroke="rgb(255,170,0)" stroke-width="1"/>
            <circle cx="18" cy="19" r="10" fill="none" stroke="rgb(255,170,0)" stroke-width="1"/>
     </g>
     <g id="pin_Layer">
            <circle cx="4" cy="19" r="2" fill="none" stroke="rgb(255,0,0)" stroke-width="1"/>
            <circle cx="58" cy="12" r="2" fill="none" stroke="rgb(128,128,128)" stroke-width="1"/>
            <circle cx="58" cy="26" r="2" fill="none" stroke="rgb(128,128,128)" stroke-width="1"/>
     </g>
     <g id="line_Layer">
            <line x1="7" y1="19" x2="5" y2="19" fill="none" stroke="rgb(255,170,0)" stroke-width="2"/>
            <line x1="51" y1="12" x2="57" y2="12" fill="none" stroke="rgb(255,170,0)" stroke-width="2"/>
            <line x1="52" y1="14" x2="50" y2="12" fill="none" stroke="rgb(255,170,0)" stroke-width="2"/>
            <line x1="49" y1="14" x2="49" y2="10" fill="none" stroke="rgb(255,170,0)" stroke-width="2"/>
            <line x1="47" y1="12" x2="45" y2="10" fill="none" stroke="rgb(255,170,0)" stroke-width="2"/>
            <line x1="47" y1="12" x2="45" y2="14" fill="none" stroke="rgb(255,170,0)" stroke-width="2"/>
            <line x1="39" y1="27" x2="42" y2="27" fill="none" stroke="rgb(255,170,0)" stroke-width="2"/>
            <line x1="47" y1="26" x2="45" y2="28" fill="none" stroke="rgb(255,170,0)" stroke-width="2"/>
            <line x1="47" y1="26" x2="45" y2="24" fill="none" stroke="rgb(255,170,0)" stroke-width="2"/>
            <line x1="49" y1="28" x2="49" y2="24" fill="none" stroke="rgb(255,170,0)" stroke-width="2"/>
            <line x1="52" y1="28" x2="50" y2="26" fill="none" stroke="rgb(255,170,0)" stroke-width="2"/>
            <line x1="51" y1="26" x2="57" y2="26" fill="none" stroke="rgb(255,170,0)" stroke-width="2"/>
     </g>
     <g id="polyline_Layer">
            <polyline points="41,12 39,12 39,12" fill="none" stroke="rgb(255,170,0)" stroke-width="2"/>
     </g>
</svg>
