<?xml version="1.0" encoding="UTF-8"?>
<svg name="RectifierInverter" id="sgd_zlty3" viewBox="0 0 110 84">
     <g id="Head_Layer">
            <rect x="0" y="0" width="110" height="84" fill="rgb(0,0,0)"/>
     </g>
     <g id="rect_Layer">
            <rect x="9" y="56" width="40" height="24" fill="none" stroke="rgb(0,0,255)" lineStyle="0" stroke-width="2"/>
            <rect x="9" y="56" width="40" height="24" fill="none" stroke="rgb(0,0,255)" lineStyle="0" stroke-width="2"/>
            <rect x="61" y="56" width="40" height="24" fill="none" stroke="rgb(0,0,255)" lineStyle="0" stroke-width="2"/>
            <rect x="61" y="56" width="40" height="24" fill="none" stroke="rgb(0,0,255)" lineStyle="0" stroke-width="2"/>
     </g>
     <g id="circle_Layer">
            <circle cx="29" cy="22" r="11" fill="none" stroke="rgb(0,0,255)" stroke-width="2"/>
            <circle cx="82" cy="22" r="11" fill="none" stroke="rgb(0,0,255)" stroke-width="2"/>
            <circle cx="29" cy="22" r="11" fill="none" stroke="rgb(0,0,255)" stroke-width="2"/>
            <circle cx="82" cy="22" r="11" fill="none" stroke="rgb(0,0,255)" stroke-width="2"/>
            <circle cx="29" cy="32" r="11" fill="none" stroke="rgb(0,0,255)" stroke-width="2"/>
            <circle cx="29" cy="32" r="11" fill="none" stroke="rgb(0,0,255)" stroke-width="2"/>
            <circle cx="82" cy="32" r="11" fill="none" stroke="rgb(0,0,255)" stroke-width="2"/>
            <circle cx="82" cy="32" r="11" fill="none" stroke="rgb(0,0,255)" stroke-width="2"/>
     </g>
     <g id="pin_Layer">
            <circle cx="55" cy="4" r="2" fill="none" stroke="rgb(255,0,0)" stroke-width="1"/>
            <circle cx="4" cy="68" r="2" fill="none" stroke="rgb(128,128,128)" stroke-width="1"/>
            <circle cx="106" cy="68" r="2" fill="none" stroke="rgb(128,128,128)" stroke-width="1"/>
     </g>
     <g id="triangle_Layer">
            <polygon points="22.5,62 16,74 29,74" fill="rgb(0,0,255)" stroke="rgb(0,0,255)" stroke-width="2"/>
            <polygon points="22.5,62 16,74 29,74" fill="none" stroke="rgb(0,0,255)" stroke-width="2"/>
            <polygon points="74.5,62 68,74 81,74" fill="rgb(0,0,255)" stroke="rgb(0,0,255)" stroke-width="2"/>
            <polygon points="74.5,62 68,74 81,74" fill="none" stroke="rgb(0,0,255)" stroke-width="2"/>
            <polygon points="29,28 24,36 34,36" fill="none" stroke="rgb(0,0,255)" stroke-width="2"/>
            <polygon points="29,28 24,36 34,36" fill="none" stroke="rgb(0,0,255)" stroke-width="2"/>
     </g>
     <g id="line_Layer">
            <line x1="29" y1="10" x2="29" y2="4" fill="none" stroke="rgb(0,0,255)" stroke-width="2"/>
            <line x1="83" y1="10" x2="83" y2="4" fill="none" stroke="rgb(0,0,255)" stroke-width="2"/>
            <line x1="29" y1="4" x2="82" y2="4" fill="none" stroke="rgb(0,0,255)" stroke-width="2"/>
            <line x1="29" y1="22" x2="29" y2="16" fill="none" stroke="rgb(0,0,255)" stroke-width="2"/>
            <line x1="29" y1="22" x2="24" y2="27" fill="none" stroke="rgb(0,0,255)" stroke-width="2"/>
            <line x1="29" y1="22" x2="34" y2="27" fill="none" stroke="rgb(0,0,255)" stroke-width="2"/>
            <line x1="83" y1="22" x2="88" y2="27" fill="none" stroke="rgb(0,0,255)" stroke-width="2"/>
            <line x1="83" y1="22" x2="78" y2="27" fill="none" stroke="rgb(0,0,255)" stroke-width="2"/>
            <line x1="83" y1="22" x2="83" y2="16" fill="none" stroke="rgb(0,0,255)" stroke-width="2"/>
            <line x1="29" y1="11" x2="29" y2="5" fill="none" stroke="rgb(0,0,255)" stroke-width="2"/>
            <line x1="83" y1="11" x2="83" y2="4" fill="none" stroke="rgb(0,0,255)" stroke-width="2"/>
            <line x1="29" y1="4" x2="82" y2="4" fill="none" stroke="rgb(0,0,255)" stroke-width="2"/>
            <line x1="29" y1="22" x2="29" y2="16" fill="none" stroke="rgb(0,0,255)" stroke-width="2"/>
            <line x1="29" y1="22" x2="24" y2="27" fill="none" stroke="rgb(0,0,255)" stroke-width="2"/>
            <line x1="29" y1="22" x2="34" y2="27" fill="none" stroke="rgb(0,0,255)" stroke-width="2"/>
            <line x1="83" y1="22" x2="88" y2="27" fill="none" stroke="rgb(0,0,255)" stroke-width="2"/>
            <line x1="83" y1="22" x2="78" y2="27" fill="none" stroke="rgb(0,0,255)" stroke-width="2"/>
            <line x1="83" y1="22" x2="83" y2="16" fill="none" stroke="rgb(0,0,255)" stroke-width="2"/>
            <line x1="9" y1="68" x2="6" y2="68" fill="none" stroke="rgb(0,0,255)" stroke-width="2"/>
            <line x1="16" y1="68" x2="13" y2="68" fill="none" stroke="rgb(0,0,255)" stroke-width="2"/>
            <line x1="28" y1="68" x2="45" y2="68" fill="none" stroke="rgb(0,0,255)" stroke-width="2"/>
            <line x1="36" y1="60" x2="36" y2="76" fill="none" stroke="rgb(0,0,255)" stroke-width="2"/>
            <line x1="36" y1="68" x2="43" y2="75" fill="none" stroke="rgb(0,0,255)" stroke-width="2"/>
            <line x1="49" y1="68" x2="61" y2="68" fill="none" stroke="rgb(0,0,255)" stroke-width="2"/>
            <line x1="29" y1="56" x2="29" y2="45" fill="none" stroke="rgb(0,0,255)" stroke-width="2"/>
            <line x1="9" y1="68" x2="6" y2="68" fill="none" stroke="rgb(0,0,255)" stroke-width="2"/>
            <line x1="16" y1="68" x2="13" y2="68" fill="none" stroke="rgb(0,0,255)" stroke-width="2"/>
            <line x1="28" y1="68" x2="45" y2="68" fill="none" stroke="rgb(0,0,255)" stroke-width="2"/>
            <line x1="36" y1="60" x2="36" y2="76" fill="none" stroke="rgb(0,0,255)" stroke-width="2"/>
            <line x1="36" y1="68" x2="43" y2="75" fill="none" stroke="rgb(0,0,255)" stroke-width="2"/>
            <line x1="49" y1="68" x2="61" y2="68" fill="none" stroke="rgb(0,0,255)" stroke-width="2"/>
            <line x1="29" y1="56" x2="29" y2="45" fill="none" stroke="rgb(0,0,255)" stroke-width="2"/>
            <line x1="101" y1="68" x2="104" y2="68" fill="none" stroke="rgb(0,0,255)" stroke-width="2"/>
            <line x1="88" y1="68" x2="95" y2="75" fill="none" stroke="rgb(0,0,255)" stroke-width="2"/>
            <line x1="88" y1="60" x2="88" y2="76" fill="none" stroke="rgb(0,0,255)" stroke-width="2"/>
            <line x1="80" y1="68" x2="97" y2="68" fill="none" stroke="rgb(0,0,255)" stroke-width="2"/>
            <line x1="68" y1="68" x2="65" y2="68" fill="none" stroke="rgb(0,0,255)" stroke-width="2"/>
            <line x1="83" y1="56" x2="83" y2="45" fill="none" stroke="rgb(0,0,255)" stroke-width="2"/>
            <line x1="101" y1="68" x2="104" y2="68" fill="none" stroke="rgb(0,0,255)" stroke-width="2"/>
            <line x1="88" y1="68" x2="95" y2="75" fill="none" stroke="rgb(0,0,255)" stroke-width="2"/>
            <line x1="88" y1="60" x2="88" y2="76" fill="none" stroke="rgb(0,0,255)" stroke-width="2"/>
            <line x1="80" y1="68" x2="97" y2="68" fill="none" stroke="rgb(0,0,255)" stroke-width="2"/>
            <line x1="68" y1="68" x2="65" y2="68" fill="none" stroke="rgb(0,0,255)" stroke-width="2"/>
            <line x1="83" y1="55" x2="83" y2="45" fill="none" stroke="rgb(0,0,255)" stroke-width="2"/>
            <line x1="83" y1="31" x2="83" y2="25" fill="none" stroke="rgb(0,0,255)" stroke-width="2"/>
            <line x1="83" y1="31" x2="78" y2="36" fill="none" stroke="rgb(0,0,255)" stroke-width="2"/>
            <line x1="83" y1="31" x2="88" y2="36" fill="none" stroke="rgb(0,0,255)" stroke-width="2"/>
            <line x1="83" y1="31" x2="78" y2="36" fill="none" stroke="rgb(0,0,255)" stroke-width="2"/>
            <line x1="83" y1="31" x2="83" y2="25" fill="none" stroke="rgb(0,0,255)" stroke-width="2"/>
            <line x1="83" y1="31" x2="88" y2="36" fill="none" stroke="rgb(0,0,255)" stroke-width="2"/>
     </g>
</svg>
