<?xml version="1.0" encoding="UTF-8"?>
<svg name="RectifierInverter" id="sgd_hlq1" viewBox="0 0 126 120">
     <g id="Head_Layer">
            <rect x="0" y="0" width="126" height="120" fill="rgb(0,0,0)"/>
     </g>
     <g id="rect_Layer">
            <rect x="54" y="3" width="59" height="34" fill="none" stroke="rgb(255,170,0)" lineStyle="0" stroke-width="2"/>
            <rect x="54" y="83" width="59" height="34" fill="none" stroke="rgb(255,170,0)" lineStyle="0" stroke-width="2"/>
     </g>
     <g id="circle_Layer">
            <circle cx="22" cy="56" r="5" fill="none" stroke="rgb(255,170,0)" stroke-width="1"/>
            <circle cx="18" cy="60" r="5" fill="none" stroke="rgb(255,170,0)" stroke-width="1"/>
            <circle cx="22" cy="63" r="5" fill="none" stroke="rgb(255,170,0)" stroke-width="1"/>
     </g>
     <g id="pin_Layer">
            <circle cx="3" cy="60" r="2" fill="none" stroke="rgb(128,128,128)" stroke-width="1"/>
            <circle cx="122" cy="20" r="2" fill="none" stroke="rgb(255,0,0)" stroke-width="1"/>
            <circle cx="121" cy="108" r="2" fill="none" stroke="rgb(128,128,128)" stroke-width="1"/>
     </g>
     <g id="line_Layer">
            <line x1="13" y1="60" x2="4" y2="60" fill="none" stroke="rgb(255,170,0)" stroke-width="2"/>
            <line x1="88" y1="20" x2="121" y2="20" fill="none" stroke="rgb(255,170,0)" stroke-width="2"/>
            <line x1="108" y1="28" x2="87" y2="20" fill="none" stroke="rgb(255,170,0)" stroke-width="2"/>
            <line x1="86" y1="32" x2="86" y2="8" fill="none" stroke="rgb(255,170,0)" stroke-width="2"/>
            <line x1="84" y1="20" x2="66" y2="9" fill="none" stroke="rgb(255,170,0)" stroke-width="2"/>
            <line x1="84" y1="20" x2="66" y2="31" fill="none" stroke="rgb(255,170,0)" stroke-width="2"/>
            <line x1="113" y1="108" x2="120" y2="108" fill="none" stroke="rgb(255,170,0)" stroke-width="2"/>
            <line x1="90" y1="100" x2="113" y2="100" fill="none" stroke="rgb(255,170,0)" stroke-width="2"/>
            <line x1="110" y1="108" x2="89" y2="100" fill="none" stroke="rgb(255,170,0)" stroke-width="2"/>
            <line x1="88" y1="112" x2="88" y2="88" fill="none" stroke="rgb(255,170,0)" stroke-width="2"/>
            <line x1="86" y1="100" x2="68" y2="89" fill="none" stroke="rgb(255,170,0)" stroke-width="2"/>
            <line x1="86" y1="100" x2="68" y2="111" fill="none" stroke="rgb(255,170,0)" stroke-width="2"/>
     </g>
     <g id="polyline_Layer">
            <polyline points="62,20 22,20 22,51" fill="none" stroke="rgb(255,170,0)" stroke-width="2"/>
            <polyline points="62,100 22,100 22,69" fill="none" stroke="rgb(255,170,0)" stroke-width="2"/>
     </g>
</svg>
