<?xml version="1.0" encoding="UTF-8"?>
<svg name="RectifierInverter" id="sgd_hlq2" viewBox="0 0 166 126">
     <g id="Head_Layer">
            <rect x="0" y="0" width="166" height="126" fill="rgb(0,0,0)"/>
     </g>
     <g id="rect_Layer">
            <rect x="75" y="3" width="74" height="44" fill="none" stroke="rgb(0,0,255)" lineStyle="0" stroke-width="2"/>
            <rect x="75" y="77" width="74" height="44" fill="none" stroke="rgb(0,0,255)" lineStyle="0" stroke-width="2"/>
     </g>
     <g id="circle_Layer">
            <circle cx="36" cy="56" r="5" fill="none" stroke="rgb(0,0,255)" stroke-width="1"/>
            <circle cx="30" cy="59" r="5" fill="none" stroke="rgb(0,0,255)" stroke-width="1"/>
            <circle cx="36" cy="63" r="5" fill="none" stroke="rgb(0,0,255)" stroke-width="1"/>
     </g>
     <g id="pin_Layer">
            <circle cx="3" cy="59" r="2" fill="none" stroke="rgb(128,128,128)" stroke-width="1"/>
            <circle cx="158" cy="23" r="2" fill="none" stroke="rgb(128,128,128)" stroke-width="0"/>
            <circle cx="157" cy="111" r="2" fill="none" stroke="rgb(255,0,0)" stroke-width="1"/>
     </g>
     <g id="line_Layer">
            <line x1="26" y1="59" x2="3" y2="59" fill="none" stroke="rgb(0,0,255)" stroke-width="2"/>
            <line x1="124" y1="24" x2="158" y2="24" fill="none" stroke="rgb(0,0,255)" stroke-width="2"/>
            <line x1="144" y1="37" x2="123" y2="24" fill="none" stroke="rgb(0,0,255)" stroke-width="2"/>
            <line x1="122" y1="41" x2="122" y2="8" fill="none" stroke="rgb(0,0,255)" stroke-width="2"/>
            <line x1="120" y1="24" x2="96" y2="9" fill="none" stroke="rgb(0,0,255)" stroke-width="2"/>
            <line x1="120" y1="24" x2="95" y2="39" fill="none" stroke="rgb(0,0,255)" stroke-width="2"/>
            <line x1="151" y1="111" x2="158" y2="111" fill="none" stroke="rgb(0,0,255)" stroke-width="2"/>
            <line x1="121" y1="98" x2="95" y2="113" fill="none" stroke="rgb(0,0,255)" stroke-width="2"/>
            <line x1="121" y1="98" x2="96" y2="83" fill="none" stroke="rgb(0,0,255)" stroke-width="2"/>
            <line x1="123" y1="115" x2="123" y2="82" fill="none" stroke="rgb(0,0,255)" stroke-width="2"/>
            <line x1="145" y1="111" x2="123" y2="98" fill="none" stroke="rgb(0,0,255)" stroke-width="2"/>
            <line x1="124" y1="98" x2="149" y2="98" fill="none" stroke="rgb(0,0,255)" stroke-width="2"/>
     </g>
     <g id="polyline_Layer">
            <polyline points="89,24 36,24 36,50" fill="none" stroke="rgb(0,0,255)" stroke-width="2"/>
            <polyline points="88,98 36,98 36,68" fill="none" stroke="rgb(0,0,255)" stroke-width="2"/>
     </g>
</svg>
