<?xml version="1.0" encoding="UTF-8"?>
<svg name="RectifierInverter" id="sgd_zlty2" viewBox="0 0 110 70">
     <g id="Head_Layer">
            <rect x="0" y="0" width="110" height="70" fill="rgb(0,0,0)"/>
     </g>
     <g id="rect_Layer">
            <rect x="9" y="43" width="40" height="24" fill="none" stroke="rgb(0,0,255)" lineStyle="0" stroke-width="1"/>
            <rect x="9" y="43" width="40" height="24" fill="none" stroke="rgb(0,0,255)" lineStyle="0" stroke-width="1"/>
            <rect x="61" y="43" width="40" height="24" fill="none" stroke="rgb(0,0,255)" lineStyle="0" stroke-width="1"/>
            <rect x="61" y="43" width="40" height="24" fill="none" stroke="rgb(0,0,255)" lineStyle="0" stroke-width="1"/>
     </g>
     <g id="circle_Layer">
            <circle cx="56" cy="15" r="11" fill="none" stroke="rgb(0,0,255)" stroke-width="1"/>
            <circle cx="56" cy="15" r="11" fill="none" stroke="rgb(0,0,255)" stroke-width="1"/>
            <circle cx="47" cy="26" r="11" fill="none" stroke="rgb(0,0,255)" stroke-width="1"/>
            <circle cx="47" cy="26" r="11" fill="none" stroke="rgb(0,0,255)" stroke-width="1"/>
            <circle cx="64" cy="26" r="11" fill="none" stroke="rgb(0,0,255)" stroke-width="1"/>
            <circle cx="64" cy="26" r="11" fill="none" stroke="rgb(0,0,255)" stroke-width="1"/>
     </g>
     <g id="pin_Layer">
            <circle cx="56" cy="4" r="2" fill="none" stroke="rgb(128,128,128)" stroke-width="1"/>
            <circle cx="4" cy="55" r="2" fill="none" stroke="rgb(128,128,128)" stroke-width="1"/>
            <circle cx="106" cy="55" r="2" fill="none" stroke="rgb(255,0,0)" stroke-width="1"/>
     </g>
     <g id="triangle_Layer">
            <polygon points="22.5,49 16,61 29,61" fill="rgb(0,0,255)" stroke="rgb(0,0,255)" stroke-width="1"/>
            <polygon points="46.5,22 42,30 51,30" fill="none" stroke="rgb(0,0,255)" stroke-width="1"/>
            <polygon points="22.5,49 16,61 29,61" fill="none" stroke="rgb(0,0,255)" stroke-width="1"/>
            <polygon points="46.5,22 42,30 51,30" fill="none" stroke="rgb(0,0,255)" stroke-width="1"/>
            <polygon points="74.5,49 68,61 81,61" fill="rgb(0,0,255)" stroke="rgb(0,0,255)" stroke-width="1"/>
            <polygon points="74.5,49 68,61 81,61" fill="none" stroke="rgb(0,0,255)" stroke-width="1"/>
     </g>
     <g id="line_Layer">
            <line x1="56" y1="15" x2="56" y2="8" fill="none" stroke="rgb(0,0,255)" stroke-width="1"/>
            <line x1="56" y1="15" x2="51" y2="20" fill="none" stroke="rgb(0,0,255)" stroke-width="1"/>
            <line x1="56" y1="15" x2="62" y2="20" fill="none" stroke="rgb(0,0,255)" stroke-width="1"/>
            <line x1="56" y1="15" x2="56" y2="8" fill="none" stroke="rgb(0,0,255)" stroke-width="1"/>
            <line x1="56" y1="15" x2="51" y2="20" fill="none" stroke="rgb(0,0,255)" stroke-width="1"/>
            <line x1="56" y1="15" x2="62" y2="20" fill="none" stroke="rgb(0,0,255)" stroke-width="1"/>
            <line x1="9" y1="55" x2="6" y2="55" fill="none" stroke="rgb(0,0,255)" stroke-width="1"/>
            <line x1="16" y1="55" x2="13" y2="55" fill="none" stroke="rgb(0,0,255)" stroke-width="1"/>
            <line x1="28" y1="55" x2="45" y2="55" fill="none" stroke="rgb(0,0,255)" stroke-width="1"/>
            <line x1="36" y1="47" x2="36" y2="63" fill="none" stroke="rgb(0,0,255)" stroke-width="1"/>
            <line x1="36" y1="55" x2="43" y2="62" fill="none" stroke="rgb(0,0,255)" stroke-width="1"/>
            <line x1="49" y1="55" x2="61" y2="55" fill="none" stroke="rgb(0,0,255)" stroke-width="1"/>
            <line x1="36" y1="25" x2="30" y2="25" fill="none" stroke="rgb(0,0,255)" stroke-width="1"/>
            <line x1="29" y1="25" x2="29" y2="43" fill="none" stroke="rgb(0,0,255)" stroke-width="1"/>
            <line x1="9" y1="55" x2="6" y2="55" fill="none" stroke="rgb(0,0,255)" stroke-width="1"/>
            <line x1="16" y1="55" x2="13" y2="55" fill="none" stroke="rgb(0,0,255)" stroke-width="1"/>
            <line x1="28" y1="55" x2="45" y2="55" fill="none" stroke="rgb(0,0,255)" stroke-width="1"/>
            <line x1="36" y1="47" x2="36" y2="63" fill="none" stroke="rgb(0,0,255)" stroke-width="1"/>
            <line x1="36" y1="55" x2="43" y2="62" fill="none" stroke="rgb(0,0,255)" stroke-width="1"/>
            <line x1="49" y1="55" x2="61" y2="55" fill="none" stroke="rgb(0,0,255)" stroke-width="1"/>
            <line x1="36" y1="25" x2="30" y2="25" fill="none" stroke="rgb(0,0,255)" stroke-width="1"/>
            <line x1="29" y1="25" x2="29" y2="43" fill="none" stroke="rgb(0,0,255)" stroke-width="1"/>
            <line x1="101" y1="55" x2="104" y2="55" fill="none" stroke="rgb(0,0,255)" stroke-width="1"/>
            <line x1="88" y1="55" x2="95" y2="62" fill="none" stroke="rgb(0,0,255)" stroke-width="1"/>
            <line x1="88" y1="47" x2="88" y2="63" fill="none" stroke="rgb(0,0,255)" stroke-width="1"/>
            <line x1="80" y1="55" x2="97" y2="55" fill="none" stroke="rgb(0,0,255)" stroke-width="1"/>
            <line x1="68" y1="55" x2="65" y2="55" fill="none" stroke="rgb(0,0,255)" stroke-width="1"/>
            <line x1="75" y1="26" x2="82" y2="26" fill="none" stroke="rgb(0,0,255)" stroke-width="1"/>
            <line x1="82" y1="26" x2="82" y2="43" fill="none" stroke="rgb(0,0,255)" stroke-width="1"/>
            <line x1="65" y1="26" x2="65" y2="19" fill="none" stroke="rgb(0,0,255)" stroke-width="1"/>
            <line x1="65" y1="26" x2="60" y2="31" fill="none" stroke="rgb(0,0,255)" stroke-width="1"/>
            <line x1="65" y1="26" x2="71" y2="31" fill="none" stroke="rgb(0,0,255)" stroke-width="1"/>
            <line x1="101" y1="55" x2="104" y2="55" fill="none" stroke="rgb(0,0,255)" stroke-width="1"/>
            <line x1="88" y1="55" x2="95" y2="62" fill="none" stroke="rgb(0,0,255)" stroke-width="1"/>
            <line x1="88" y1="47" x2="88" y2="63" fill="none" stroke="rgb(0,0,255)" stroke-width="1"/>
            <line x1="80" y1="55" x2="97" y2="55" fill="none" stroke="rgb(0,0,255)" stroke-width="1"/>
            <line x1="68" y1="55" x2="65" y2="55" fill="none" stroke="rgb(0,0,255)" stroke-width="1"/>
            <line x1="75" y1="26" x2="82" y2="26" fill="none" stroke="rgb(0,0,255)" stroke-width="1"/>
            <line x1="82" y1="26" x2="82" y2="43" fill="none" stroke="rgb(0,0,255)" stroke-width="1"/>
            <line x1="65" y1="26" x2="65" y2="19" fill="none" stroke="rgb(0,0,255)" stroke-width="1"/>
            <line x1="65" y1="26" x2="60" y2="31" fill="none" stroke="rgb(0,0,255)" stroke-width="1"/>
            <line x1="65" y1="26" x2="71" y2="31" fill="none" stroke="rgb(0,0,255)" stroke-width="1"/>
     </g>
</svg>
