<?xml version="1.0" encoding="UTF-8"?>
<svg name="Generator" id="sgd_bcq" viewBox="0 0 26 60">
     <g id="Head_Layer">
            <rect x="0" y="0" width="26" height="60" fill="rgb(0,0,0)"/>
     </g>
     <g id="circlearc_Layer">
            <path d="M 13 10 A 8 8 0 1 1 13 26" fill="none" stroke="rgb(93,92,88)" stroke-width="2"/>
            <path d="M 13 26 A 8 8 0 1 1 5 18" fill="none" stroke="rgb(93,92,88)" stroke-width="2"/>
     </g>
     <g id="pin_Layer">
            <circle cx="12" cy="4" r="2" fill="none" stroke="rgb(255,0,0)" stroke-width="1"/>
     </g>
     <g id="line_Layer">
            <line x1="5" y1="18" x2="13" y2="18" fill="rgb(93,92,88)" stroke="rgb(93,92,88)" stroke-width="2"/>
            <line x1="13" y1="18" x2="13" y2="32" fill="rgb(93,92,88)" stroke="rgb(93,92,88)" stroke-width="2"/>
            <line x1="13" y1="10" x2="13" y2="3" fill="rgb(93,92,88)" stroke="rgb(93,92,88)" stroke-width="2"/>
            <line x1="8" y1="35" x2="8" y2="35" fill="rgb(93,92,88)" stroke="rgb(93,92,88)" stroke-width="1"/>
            <line x1="17" y1="35" x2="17" y2="35" fill="rgb(93,92,88)" stroke="rgb(93,92,88)" stroke-width="1"/>
            <line x1="5" y1="50" x2="20" y2="50" fill="rgb(93,92,88)" stroke="rgb(93,92,88)" stroke-width="2"/>
            <line x1="7" y1="53" x2="17" y2="53" fill="rgb(93,92,88)" stroke="rgb(93,92,88)" stroke-width="2"/>
            <line x1="9" y1="56" x2="15" y2="56" fill="rgb(93,92,88)" stroke="rgb(93,92,88)" stroke-width="2"/>
            <line x1="5" y1="33" x2="20" y2="33" fill="rgb(93,92,88)" stroke="rgb(93,92,88)" stroke-width="2"/>
            <line x1="5" y1="40" x2="20" y2="40" fill="rgb(93,92,88)" stroke="rgb(93,92,88)" stroke-width="2"/>
            <line x1="13" y1="40" x2="13" y2="49" fill="rgb(93,92,88)" stroke="rgb(93,92,88)" stroke-width="2"/>
     </g>
</svg>
