<?xml version="1.0" encoding="UTF-8"?>
<svg name="Ascoil" id="sgd_xhxq1" viewBox="0 0 12 40">
     <g id="Head_Layer">
            <rect x="0" y="0" width="12" height="40" fill="rgb(0,0,0)"/>
     </g>
     <g id="circlearc_Layer">
            <path d="M 5 8 A 4 4 0 1 1 5 16" fill="none" stroke="rgb(255,255,255)" stroke-width="1"/>
            <path d="M 9 14 A 0 0 0 1 1 9 14" fill="none" stroke="rgb(0,0,255)" stroke-width="1"/>
            <path d="M 5 24 A 4 4 0 1 1 5 32" fill="none" stroke="rgb(255,255,255)" stroke-width="1"/>
            <path d="M 5 15 A 4 4 0 1 1 5 23" fill="none" stroke="rgb(255,255,255)" stroke-width="1"/>
     </g>
     <g id="pin_Layer">
            <circle cx="5" cy="4" r="2" fill="none" stroke="rgb(255,0,0)" stroke-width="1"/>
     </g>
     <g id="line_Layer">
            <line x1="5" y1="32" x2="5" y2="32" fill="none" stroke="rgb(0,0,255)" stroke-width="1"/>
            <line x1="5" y1="32" x2="5" y2="35" fill="none" stroke="rgb(255,255,255)" stroke-width="1"/>
            <line x1="2" y1="35" x2="9" y2="35" fill="none" stroke="rgb(255,255,255)" stroke-width="1"/>
            <line x1="3" y1="35" x2="1" y2="35" fill="none" stroke="rgb(255,255,255)" stroke-width="1"/>
            <line x1="2" y1="37" x2="8" y2="37" fill="none" stroke="rgb(255,255,255)" stroke-width="1"/>
            <line x1="3" y1="39" x2="7" y2="39" fill="none" stroke="rgb(255,255,255)" stroke-width="1"/>
            <line x1="5" y1="8" x2="5" y2="4" fill="none" stroke="rgb(255,255,255)" stroke-width="1"/>
     </g>
</svg>
