<?xml version="1.0" encoding="UTF-8"?>
<svg name="Reactor_P" id="sgd_dk3" viewBox="0 0 20 50">
     <g id="Head_Layer">
            <rect x="0" y="0" width="20" height="50" fill="rgb(0,0,0)"/>
     </g>
     <g id="circlearc_Layer">
            <path d="M 10 18 A 8 8 0 1 1 10 34" fill="none" stroke="rgb(0,0,255)" stroke-width="1"/>
            <path d="M 10 34 A 8 8 0 1 1 2 26" fill="none" stroke="rgb(0,0,255)" stroke-width="1"/>
     </g>
     <g id="pin_Layer">
            <circle cx="10" cy="3" r="2" fill="none" stroke="rgb(255,0,0)" stroke-width="1"/>
     </g>
     <g id="line_Layer">
            <line x1="2" y1="26" x2="10" y2="26" fill="rgb(93,92,88)" stroke="rgb(0,0,255)" stroke-width="1"/>
            <line x1="10" y1="26" x2="10" y2="40" fill="rgb(93,92,88)" stroke="rgb(0,0,255)" stroke-width="1"/>
            <line x1="10" y1="18" x2="10" y2="14" fill="rgb(93,92,88)" stroke="rgb(0,0,255)" stroke-width="1"/>
            <line x1="5" y1="43" x2="5" y2="43" fill="rgb(93,92,88)" stroke="rgb(0,0,255)" stroke-width="1"/>
            <line x1="14" y1="43" x2="14" y2="43" fill="rgb(93,92,88)" stroke="rgb(0,0,255)" stroke-width="1"/>
            <line x1="2" y1="40" x2="17" y2="40" fill="rgb(93,92,88)" stroke="rgb(0,0,255)" stroke-width="1"/>
            <line x1="4" y1="43" x2="14" y2="43" fill="rgb(93,92,88)" stroke="rgb(0,0,255)" stroke-width="1"/>
            <line x1="7" y1="46" x2="13" y2="46" fill="rgb(93,92,88)" stroke="rgb(0,0,255)" stroke-width="1"/>
            <line x1="5" y1="13" x2="15" y2="13" fill="none" stroke="rgb(0,0,255)" stroke-width="1"/>
            <line x1="5" y1="10" x2="15" y2="10" fill="none" stroke="rgb(0,0,255)" stroke-width="1"/>
            <line x1="10" y1="6" x2="10" y2="10" fill="none" stroke="rgb(0,0,255)" stroke-width="1"/>
     </g>
</svg>
